<svg width="117" height="45" viewBox="0 0 117 45" fill="none" xmlns="http://www.w3.org/2000/svg">
<path d="M17.9072 11.5174C16.4827 11.5196 15.0647 11.708 13.689 12.0776C13.9411 11.5959 14.1932 11.1925 14.4116 10.8396C14.9046 10.0385 15.2911 9.40554 15.2911 8.63248V2.62728C15.2911 0.341715 10.6584 0 7.89668 0C5.13496 0 0.507812 0.341715 0.507812 2.62728V8.62128L1.9755 26.5136C2.00351 26.7937 2.0091 27.0738 2.02031 27.3819V27.4323C2.09247 29.4211 2.55726 31.3759 3.38792 33.1843C4.21857 34.9927 5.39868 36.6189 6.86033 37.9695C9.85768 40.7607 13.8059 42.3051 17.9016 42.2885C26.6629 42.2885 33.7941 35.387 33.7941 26.9002C33.7941 18.4133 26.6685 11.5174 17.9072 11.5174Z" fill="#1F0242"/>
<path d="M15.1511 38.2834C20.2931 38.2834 24.4614 34.1151 24.4614 28.9731C24.4614 23.8312 20.2931 19.6628 15.1511 19.6628C10.0092 19.6628 5.84082 23.8312 5.84082 28.9731C5.84082 34.1151 10.0092 38.2834 15.1511 38.2834Z" fill="url(#paint0_linear_220_7919)"/>
<path d="M15.1507 19.6628C14.8307 19.6625 14.511 19.6794 14.1928 19.7133C13.0272 20.2063 11.9951 20.9686 11.181 21.9374C10.3668 22.9063 9.7938 24.0543 9.50888 25.2874C9.22396 26.5204 9.23524 27.8035 9.54179 29.0313C9.84834 30.2592 10.4414 31.3969 11.2725 32.3513C12.1035 33.3058 13.1489 34.0497 14.3229 34.5223C15.4969 34.9948 16.7662 35.1824 18.0267 35.0698C19.2873 34.9572 20.5031 34.5475 21.5748 33.8744C22.6465 33.2012 23.5434 32.2837 24.1921 31.1971C24.5254 29.8275 24.5434 28.4002 24.2447 27.0226C23.946 25.6451 23.3384 24.3534 22.4678 23.2449C21.5972 22.1363 20.4862 21.24 19.2187 20.6234C17.9512 20.0068 16.5603 19.686 15.1507 19.6853V19.6628Z" fill="#1F0242"/>
<path d="M16.4228 32.8265C19.3774 32.8265 21.7726 30.4313 21.7726 27.4767C21.7726 24.5221 19.3774 22.127 16.4228 22.127C13.4682 22.127 11.073 24.5221 11.073 27.4767C11.073 30.4313 13.4682 32.8265 16.4228 32.8265Z" fill="#FF5855"/>
<path d="M16.2993 39.1683C18.9207 39.0708 21.4044 37.9701 23.2372 36.0934C25.07 34.2168 26.1119 31.7078 26.1474 29.0849C26.1474 23.4831 21.4587 18.9735 15.6775 18.9735C14.2795 18.9727 12.8946 19.2428 11.5994 19.769L11.8066 18.0324C13.3471 17.3305 15.021 16.9694 16.7139 16.9737C23.0664 16.9737 28.2201 21.9481 28.2201 28.0878C28.2201 34.2274 23.0664 39.1963 16.7139 39.1963" fill="url(#paint1_linear_220_7919)"/>
<path d="M5.37579 31.8523C6.28945 34.1907 7.89278 36.196 9.97292 37.6017C12.0531 39.0075 14.5116 39.7473 17.0221 39.7229C23.8675 39.7229 29.4134 34.3675 29.4134 27.7573C29.4134 21.1471 23.8675 15.7917 17.0221 15.7917C15.1817 15.7904 13.3627 16.1859 11.6891 16.9513L12.1989 13.8311C14.0125 13.0897 15.9534 12.7091 17.9128 12.7107C26.0243 12.7107 32.6008 19.0576 32.6008 26.8834C32.6008 34.7092 26.0243 41.0617 17.9128 41.0617C9.96932 41.0617 3.49916 34.9781 3.23587 27.3708C3.23587 27.0515 3.23588 26.7266 3.18546 26.4016L1.71777 8.60453C1.71777 7.82027 4.51871 7.18726 7.87983 7.18726C11.2409 7.18726 14.0699 7.82027 14.0699 8.60453C14.0699 10.0218 10.8656 11.9656 10.8656 19.4609L10.8936 19.7915C8.64729 20.7666 6.84037 22.5371 5.81987 24.7632C4.79936 26.9893 4.63722 29.5139 5.36458 31.8523H5.37579Z" fill="url(#paint2_linear_220_7919)"/>
<path d="M14.087 2.62723C14.087 1.84297 11.3141 1.20996 7.89692 1.20996C4.47978 1.20996 1.73486 1.84297 1.73486 2.62723V8.62124C3.66404 7.6883 5.7792 7.20371 7.92211 7.20371C10.065 7.20371 12.1802 7.6883 14.1094 8.62124" fill="url(#paint3_linear_220_7919)"/>
<path d="M20.5513 14.6323C20.5513 14.6323 27.2735 16.761 30.433 23.0687C30.433 23.0687 28.9429 15.8367 20.5513 14.6323Z" fill="white"/>
<path d="M7.89652 7.52344C7.44837 7.52344 7.00582 7.55144 6.58008 7.59066C6.9442 8.10043 7.95254 9.88744 7.95254 13.9768V21.2592L8.95526 20.3741C8.95526 20.3741 8.95526 17.1362 8.95526 13.6519C8.95526 9.97145 10.8879 8.49816 11.6386 8.05001C10.4194 7.71273 9.16144 7.53572 7.89652 7.52344Z" fill="white"/>
<path d="M15.9297 37.5325C14.1537 37.531 12.4149 37.0234 10.917 36.0691C9.41914 35.1148 8.22426 33.7534 7.47237 32.1444C6.72048 30.5354 6.44271 28.7454 6.67163 26.9842C6.90055 25.223 7.62667 23.5635 8.76489 22.2002C7.85923 23.0543 7.13415 24.0814 6.6326 25.2208C6.13105 26.3601 5.86323 27.5885 5.84499 28.8332C5.82675 30.078 6.05846 31.3137 6.5264 32.4673C6.99435 33.6208 7.68902 34.6687 8.56927 35.549C9.44952 36.4292 10.4975 37.1239 11.651 37.5919C12.8046 38.0598 14.0403 38.2915 15.285 38.2733C16.5298 38.255 17.7582 37.9872 18.8975 37.4857C20.0369 36.9841 21.064 36.259 21.9181 35.3534C20.2421 36.7645 18.1206 37.5365 15.9297 37.5325Z" fill="white"/>
<path d="M18.96 40.0033C22.2162 39.6691 25.2411 38.1666 27.4748 35.7739C27.4748 35.7739 25.3853 40.0313 18.96 40.0033Z" fill="white"/>
<path d="M16.6021 26.1156C16.8078 26.1949 16.9975 26.3107 17.1623 26.4573L19.1453 23.2922C18.3325 22.7601 17.3832 22.4741 16.4116 22.4688C16.7253 22.8833 17.4367 24.1773 16.6021 26.1156Z" fill="#1F0242"/>
<path d="M17.5371 26.8832C17.6712 27.1108 17.7534 27.3652 17.778 27.6282L21.4248 27.3369C21.414 27.0721 21.386 26.8083 21.3408 26.5471C21.1377 25.8979 20.8614 25.2739 20.5173 24.6873C20.5173 24.6873 20.7694 26.4406 17.5371 26.8832Z" fill="#1F0242"/>
<path d="M16.3887 29.5776C16.2657 29.6066 16.1398 29.6217 16.0134 29.6225C15.9406 29.6225 15.8734 29.6225 15.8006 29.6225L15.7109 32.457C15.9445 32.4928 16.1805 32.5115 16.4168 32.513C17.2722 32.513 18.1132 32.2931 18.8592 31.8744C18.0973 31.8968 16.5792 31.7119 16.3887 29.5776Z" fill="#1F0242"/>
<path d="M16.0192 29.0848C16.7122 29.0848 17.274 28.5154 17.274 27.8131C17.274 27.1108 16.7122 26.5415 16.0192 26.5415C15.3262 26.5415 14.7644 27.1108 14.7644 27.8131C14.7644 28.5154 15.3262 29.0848 16.0192 29.0848Z" fill="#1F0242"/>
<path d="M17.8008 28.0933C17.7481 28.4246 17.6046 28.7349 17.3862 28.9896L19.739 31.2303C20.5738 30.5007 21.1447 29.5162 21.3635 28.4294C21.3131 28.491 20.3888 30.1604 17.8008 28.0933Z" fill="#1F0242"/>
<path d="M14.5965 28.7938C14.482 28.7048 14.3963 28.584 14.35 28.4465L12.0532 29.931C12.1806 30.1594 12.3267 30.3768 12.4902 30.5808C12.6644 30.7796 12.8516 30.9668 13.0504 31.141C13.6262 31.6663 14.3168 32.05 15.067 32.2614C14.6917 32.0149 13.0672 30.5416 14.5965 28.7938Z" fill="#1F0242"/>
<path d="M14.3502 27.186C14.4312 26.963 14.557 26.759 14.7199 26.5866L11.8069 25.5166C11.5432 26.1366 11.4079 26.8035 11.4092 27.4773C11.4114 27.776 11.4395 28.0741 11.4932 28.368C11.7691 27.8803 12.2003 27.499 12.7181 27.2848C13.2358 27.0706 13.8104 27.0358 14.3502 27.186Z" fill="#1F0242"/>
<path d="M15.4928 26.0992C15.6605 26.0414 15.8364 26.0111 16.0138 26.0096H16.1259L15.0055 22.6484C14.1617 22.9035 13.4003 23.3769 12.7983 24.0209C13.3721 24.1493 13.9107 24.402 14.3762 24.7611C14.8417 25.1201 15.2229 25.5769 15.4928 26.0992Z" fill="#1F0242"/>
<path d="M44.438 24.1834V10.907H47.2389V15.663C47.6795 15.2258 48.2025 14.8804 48.7775 14.6469C49.3526 14.4134 49.9683 14.2963 50.5889 14.3026C51.2095 14.3088 51.8227 14.4383 52.393 14.6833C52.9632 14.9284 53.4791 15.2842 53.9108 15.7302C54.7882 16.8231 55.2311 18.2016 55.1544 19.6011C55.1611 20.3107 55.0513 21.0165 54.8294 21.6906C54.6407 22.2722 54.3421 22.8123 53.95 23.2815C53.571 23.7189 53.1201 24.0883 52.6167 24.3739C52.0928 24.6745 51.5261 24.8937 50.9362 25.0237C50.3094 25.1656 49.6685 25.2351 49.0259 25.231C47.436 25.2433 45.865 24.8846 44.438 24.1834ZM47.2389 22.5029C47.8455 22.7629 48.5005 22.8908 49.1604 22.8782C49.9853 22.9146 50.7911 22.6225 51.4011 22.0659C51.7098 21.7451 51.9473 21.3627 52.0979 20.9437C52.2485 20.5247 52.3089 20.0786 52.275 19.6347C52.2837 19.1766 52.2155 18.7202 52.0733 18.2846C51.9647 17.942 51.7721 17.632 51.5131 17.3827C51.2879 17.1724 51.0233 17.0086 50.7345 16.901C50.446 16.7937 50.1403 16.7406 49.8326 16.7441C48.8997 16.7115 47.9885 17.0293 47.2781 17.6348L47.2389 22.5029Z" fill="#222222"/>
<path d="M56.1737 19.8194C56.1684 19.0724 56.2974 18.3305 56.5547 17.6291C56.7962 16.9762 57.1657 16.3782 57.6414 15.8701C58.1368 15.3593 58.7369 14.9618 59.4004 14.7049C60.145 14.4167 60.938 14.2741 61.7364 14.2848C62.5796 14.2692 63.4175 14.4215 64.2012 14.7329C64.8736 14.9915 65.476 15.404 65.9602 15.9373C66.4071 16.4378 66.7533 17.0198 66.9797 17.6515C67.2173 18.3069 67.3368 18.9991 67.3327 19.6962C67.3457 20.6693 67.1207 21.6308 66.6772 22.4971C66.2379 23.3326 65.5643 24.0218 64.739 24.4802C63.8241 24.9844 62.792 25.2376 61.7476 25.214C60.9093 25.2234 60.0775 25.0673 59.2996 24.7547C58.6331 24.4937 58.0353 24.0836 57.5518 23.5559C57.104 23.0571 56.756 22.4771 56.5267 21.8473C56.2911 21.1972 56.1716 20.5108 56.1737 19.8194ZM59.0811 19.657C59.0786 20.0633 59.1294 20.4683 59.2324 20.8614C59.3241 21.2239 59.4796 21.5673 59.6917 21.8753C59.9035 22.1837 60.1909 22.4325 60.5264 22.5979C60.9036 22.7792 61.318 22.8694 61.7364 22.8612C62.1765 22.8703 62.613 22.7804 63.0136 22.5979C63.3559 22.4405 63.647 22.1901 63.8539 21.8753C64.0468 21.5797 64.1941 21.2568 64.2908 20.9174C64.3867 20.5651 64.4338 20.2013 64.4309 19.8362C64.4371 19.3055 64.3479 18.7781 64.1676 18.2789C63.9889 17.8145 63.6795 17.4117 63.2769 17.1193C62.8278 16.8006 62.2869 16.6373 61.7364 16.6544C61.3774 16.6498 61.0205 16.7106 60.6832 16.8336C60.3984 16.9339 60.1386 17.0944 59.9214 17.3042C59.7228 17.506 59.5582 17.7387 59.434 17.9932C59.3087 18.2494 59.2165 18.5204 59.1596 18.7999C59.1047 19.0822 59.0784 19.3694 59.0811 19.657Z" fill="#222222"/>
<path d="M68.3859 19.8194C68.3805 19.0724 68.5095 18.3305 68.7668 17.6291C69.0061 16.9752 69.3759 16.3767 69.8536 15.8701C70.349 15.3593 70.949 14.9618 71.6126 14.7049C72.3554 14.4172 73.1464 14.2745 73.9429 14.2848C74.788 14.2692 75.6277 14.4215 76.4134 14.7329C77.085 14.9929 77.6871 15.4052 78.1724 15.9373C78.6173 16.4393 78.9633 17.0209 79.1919 17.6515C79.4295 18.3069 79.5489 18.9991 79.5448 19.6962C79.5578 20.6693 79.3328 21.6308 78.8894 22.4971C78.4482 23.3313 77.7751 24.02 76.9512 24.4802C76.0343 24.9846 75.0004 25.2378 73.9542 25.214C73.1177 25.2234 72.2877 25.0672 71.5118 24.7547C70.8445 24.4951 70.2464 24.0848 69.764 23.5559C69.3162 23.0571 68.9682 22.4771 68.7388 21.8473C68.5032 21.1972 68.3838 20.5108 68.3859 19.8194ZM71.2877 19.657C71.2851 20.0633 71.336 20.4683 71.4389 20.8614C71.535 21.2234 71.6923 21.5663 71.9039 21.8753C72.1157 22.1837 72.4031 22.4325 72.7386 22.5979C73.114 22.7786 73.5264 22.8688 73.9429 22.8612C74.3849 22.8708 74.8233 22.7808 75.2258 22.5979C75.566 22.4373 75.8563 22.1876 76.0661 21.8753C76.259 21.5797 76.4062 21.2568 76.503 20.9174C76.5961 20.5645 76.6431 20.2011 76.6431 19.8362C76.6502 19.305 76.5591 18.777 76.3742 18.2789C76.1902 17.7876 75.8565 17.3664 75.4203 17.0749C74.9841 16.7834 74.4673 16.6363 73.9429 16.6544C73.5858 16.6499 73.2308 16.7106 72.8954 16.8336C72.6106 16.9339 72.3507 17.0944 72.1336 17.3042C71.9315 17.5031 71.7664 17.7364 71.6462 17.9932C71.5182 18.2483 71.4259 18.5197 71.3717 18.7999C71.3149 19.082 71.2868 19.3692 71.2877 19.657Z" fill="#222222"/>
<path d="M80.6984 17.6793C80.673 17.197 80.7665 16.716 80.9706 16.2783C81.1748 15.8407 81.4833 15.46 81.8692 15.1696C82.8621 14.5138 84.0432 14.2028 85.2303 14.2845C86.4703 14.2629 87.6975 14.5375 88.8099 15.0856V17.3656C88.2938 17.1409 87.7519 16.981 87.1966 16.8894C86.5058 16.7421 85.8021 16.6633 85.0959 16.6541C84.9 16.6437 84.7036 16.6437 84.5077 16.6541C84.347 16.6699 84.1889 16.7057 84.0371 16.7606C83.8876 16.8104 83.7606 16.9116 83.6786 17.0463C83.5933 17.2082 83.5527 17.39 83.561 17.5728C83.5556 17.7641 83.6148 17.9515 83.729 18.105C83.8694 18.2719 84.0509 18.3994 84.2556 18.4747C84.4829 18.5739 84.7193 18.6509 84.9614 18.7044L85.8633 18.9117L86.0202 18.9453L86.8437 19.1358C87.0621 19.1862 87.3086 19.2534 87.5831 19.343C87.8141 19.4116 88.0375 19.5035 88.2497 19.6175C88.4362 19.7201 88.6125 19.8401 88.7763 19.976C88.9461 20.1119 89.0903 20.2769 89.2021 20.4634C89.3109 20.6636 89.3955 20.8761 89.4541 21.0964C89.5193 21.3641 89.5513 21.6388 89.5494 21.9143C89.557 22.388 89.4443 22.8559 89.222 23.2743C88.9996 23.6926 88.6747 24.0477 88.2777 24.3063C87.2925 24.9481 86.1303 25.2636 84.9558 25.2082C83.5348 25.2311 82.1313 24.8918 80.8777 24.2222V21.8919C81.5329 22.1885 82.2159 22.4193 82.9167 22.5809C83.6477 22.7788 84.4003 22.886 85.1575 22.9002C85.5467 22.9173 85.9335 22.8303 86.2779 22.6481C86.4097 22.5825 86.5202 22.4808 86.5965 22.3549C86.6729 22.2289 86.712 22.0839 86.7092 21.9367C86.7104 21.8395 86.688 21.7434 86.6442 21.6566C86.6003 21.5698 86.5361 21.4948 86.4571 21.4381C86.2529 21.2952 86.0195 21.1996 85.7737 21.158L84.8102 20.9676L83.6898 20.7491C83.3048 20.6774 82.929 20.5628 82.5694 20.4074C82.2278 20.2617 81.9059 20.0735 81.6115 19.8472C81.3117 19.6178 81.0763 19.3149 80.9281 18.9677C80.7651 18.5582 80.687 18.1199 80.6984 17.6793Z" fill="#222222"/>
<path d="M90.9214 21.8753V12.7107L93.7615 11.7751V14.6601H96.8874V16.8392H93.7615V21.4384C93.7463 21.6096 93.7708 21.7821 93.833 21.9423C93.8951 22.1026 93.9934 22.2465 94.12 22.3627C94.4364 22.5753 94.8157 22.6741 95.1956 22.6428C95.7026 22.6648 96.206 22.5486 96.6521 22.3067V24.637C95.9096 25.0356 95.0742 25.229 94.2321 25.1972C92.0249 25.1674 90.9214 24.06 90.9214 21.8753Z" fill="#222222"/>
<path d="M97.4144 19.7186C97.4078 19.0497 97.508 18.384 97.7114 17.7468C97.888 17.1923 98.1631 16.6743 98.5236 16.2175C98.8667 15.7995 99.2754 15.4401 99.7336 15.1531C100.191 14.8637 100.689 14.6465 101.213 14.5089C101.762 14.3688 102.326 14.2991 102.893 14.3016C103.661 14.2866 104.424 14.4296 105.134 14.7217C105.735 14.9638 106.263 15.3598 106.663 15.8701C107.033 16.358 107.312 16.9083 107.487 17.4947C107.671 18.122 107.762 18.7733 107.756 19.4273C107.752 19.9318 107.712 20.4353 107.638 20.9342H100.26C100.3 21.2534 100.418 21.5579 100.604 21.8207C100.79 22.0835 101.037 22.2966 101.325 22.4411C102.042 22.786 102.832 22.9513 103.627 22.9229C104.733 22.8713 105.826 22.658 106.87 22.2899V24.5306C105.747 25.0739 104.503 25.3226 103.257 25.2533C102.359 25.2707 101.466 25.1265 100.619 24.8275C99.9211 24.5856 99.2925 24.1781 98.7869 23.6399C98.3251 23.1359 97.9706 22.5431 97.745 21.8977C97.5111 21.1956 97.3993 20.4585 97.4144 19.7186ZM100.159 19.052H105.089C105.136 18.39 104.921 17.736 104.49 17.2314C104.275 17.023 104.021 16.8608 103.741 16.7548C103.462 16.6488 103.164 16.6013 102.865 16.6152C102.175 16.5808 101.498 16.8112 100.972 17.2594C100.721 17.4879 100.52 17.7643 100.378 18.0722C100.237 18.3801 100.158 18.7133 100.148 19.052H100.159Z" fill="#222222"/>
<path d="M109.587 24.878V14.6378H112.237L112.338 16.352C113.004 15.0132 114.242 14.3465 116.041 14.3465C116.152 14.3376 116.265 14.3376 116.377 14.3465V17.1195C115.99 17.0398 115.595 17.0004 115.2 17.0018C114.618 16.9935 114.043 17.1221 113.52 17.3771C113.025 17.6259 112.643 18.052 112.45 18.5703V24.8612L109.587 24.878Z" fill="#222222"/>
<path d="M44.2471 44.9833V30.833H46.8967L46.9584 32.4408C47.271 31.8255 47.7542 31.3134 48.3503 30.9657C48.9464 30.618 49.6301 30.4494 50.3195 30.4801C51.0503 30.4674 51.7755 30.6087 52.4482 30.8947C53.0318 31.1413 53.5469 31.5258 53.9495 32.015C54.3444 32.515 54.6409 33.0852 54.8234 33.6956C55.0289 34.3632 55.129 35.0587 55.1203 35.7571C55.1247 36.4921 55.0074 37.2228 54.773 37.9194C54.5615 38.5759 54.2332 39.1889 53.8039 39.7288C53.3748 40.2662 52.8262 40.6958 52.2017 40.9836C51.5225 41.2971 50.7817 41.4541 50.0338 41.443C49.4762 41.4619 48.9214 41.3572 48.409 41.1364C47.8967 40.9155 47.4395 40.5841 47.0704 40.1658V45.0002L44.2471 44.9833ZM47.048 38.1435C47.7855 38.7367 48.7127 39.0431 49.6585 39.0062C50.0581 39.0071 50.4527 38.9171 50.8124 38.7429C51.1358 38.5831 51.412 38.3418 51.6135 38.0426C51.8217 37.7379 51.9735 37.3983 52.0616 37.0399C52.1634 36.6371 52.2123 36.2229 52.2073 35.8075C52.2471 35.0385 52.0217 34.2791 51.5687 33.6564C51.3364 33.3809 51.0423 33.1641 50.7103 33.024C50.3783 32.8838 50.0179 32.8241 49.6585 32.8497C49.1645 32.8519 48.6749 32.943 48.2132 33.1186C47.784 33.2631 47.3879 33.4916 47.048 33.7908V38.1435Z" fill="#222222"/>
<path d="M56.1737 36.0144C56.1684 35.2673 56.2974 34.5254 56.5547 33.8241C56.7962 33.1712 57.1657 32.5732 57.6414 32.0651C58.1383 31.556 58.7379 31.1588 59.4004 30.8999C60.145 30.6117 60.938 30.4691 61.7364 30.4797C62.5794 30.467 63.4167 30.6192 64.2012 30.9279C64.8736 31.1864 65.476 31.5989 65.9602 32.1323C66.4083 32.634 66.7546 33.2181 66.9797 33.8521C67.2182 34.5072 67.3377 35.1996 67.3327 35.8968C67.3466 36.87 67.1216 37.8317 66.6772 38.6977C66.2379 39.5332 65.5643 40.2224 64.739 40.6807C63.825 41.1875 62.7923 41.4408 61.7476 41.4146C60.9099 41.423 60.0786 41.2689 59.2996 40.9608C58.6419 40.6982 58.0521 40.2903 57.5742 39.7676C57.1264 39.2689 56.7784 38.6889 56.5491 38.0591C56.3034 37.4052 56.1763 36.7128 56.1737 36.0144ZM59.0811 35.8519C59.0786 36.2583 59.1294 36.6632 59.2324 37.0563C59.3241 37.4206 59.4796 37.7658 59.6917 38.0759C59.9037 38.3827 60.1911 38.6297 60.5264 38.7929C60.9036 38.9742 61.318 39.0644 61.7364 39.0562C62.1765 39.0653 62.613 38.9753 63.0136 38.7929C63.3555 38.6375 63.6467 38.389 63.8539 38.0759C64.0469 37.7783 64.1941 37.4535 64.2908 37.1124C64.3867 36.76 64.4338 36.3963 64.4309 36.0312C64.4372 35.5023 64.348 34.9767 64.1676 34.4795C63.9904 34.0127 63.6809 33.6077 63.2769 33.3143C62.8278 32.9955 62.2869 32.8323 61.7364 32.8493C61.3774 32.8448 61.0205 32.9055 60.6832 33.0286C60.4002 33.1326 60.1411 33.2926 59.9214 33.4991C59.7228 33.701 59.5582 33.9337 59.434 34.1882C59.3094 34.4446 59.2172 34.7156 59.1596 34.9948C59.1047 35.2772 59.0784 35.5643 59.0811 35.8519Z" fill="#222222"/>
<path d="M68.3859 36.0144C68.3805 35.2673 68.5095 34.5254 68.7668 33.8241C69.0061 33.1701 69.3759 32.5717 69.8536 32.0651C70.3504 31.556 70.9501 31.1588 71.6126 30.8999C72.3554 30.6121 73.1464 30.4695 73.9429 30.4797C74.7877 30.467 75.6269 30.6192 76.4134 30.9279C77.085 31.1879 77.6871 31.6002 78.1724 32.1323C78.6186 32.6354 78.9646 33.2191 79.1919 33.8521C79.4304 34.5072 79.5499 35.1996 79.5448 35.8968C79.5588 36.87 79.3337 37.8317 78.8894 38.6977C78.4482 39.5319 77.7751 40.2206 76.9512 40.6807C76.0353 41.1877 75.0007 41.441 73.9542 41.4146C73.1183 41.4229 72.2888 41.2688 71.5118 40.9608C70.8442 40.6993 70.246 40.2871 69.764 39.7564C69.3162 39.2577 68.9682 38.6777 68.7388 38.0479C68.5021 37.3962 68.3827 36.7077 68.3859 36.0144ZM71.2877 35.8519C71.2851 36.2583 71.336 36.6632 71.4389 37.0563C71.535 37.4201 71.6922 37.7649 71.9039 38.0759C72.1158 38.3827 72.4033 38.6297 72.7386 38.7929C73.114 38.9736 73.5264 39.0637 73.9429 39.0562C74.3849 39.0658 74.8233 38.9758 75.2258 38.7929C75.5656 38.6343 75.856 38.3865 76.0661 38.0759C76.259 37.7783 76.4063 37.4535 76.503 37.1124C76.725 36.2417 76.6801 35.3243 76.3742 34.4795C76.2011 34.0104 75.8907 33.6043 75.4835 33.3143C75.0347 32.9948 74.4935 32.8315 73.9429 32.8493C73.5858 32.8449 73.2308 32.9056 72.8954 33.0286C72.6124 33.1326 72.3533 33.2926 72.1336 33.4991C71.9315 33.698 71.7664 33.9314 71.6462 34.1882C71.5191 34.4436 71.4268 34.7149 71.3717 34.9948C71.3149 35.277 71.2868 35.5641 71.2877 35.8519Z" fill="#222222"/>
<path d="M81.1914 41.0784V28.3958H84.0316V41.0784H81.1914Z" fill="#222222"/>
<path d="M86.4129 12.783H83.9929V15.3934H86.4129V12.783Z" fill="#222222"/>
<path d="M86.4129 24.301H83.9929V26.9115H86.4129V24.301Z" fill="#222222"/>
<defs>
<linearGradient id="paint0_linear_220_7919" x1="9.84615" y1="22.8671" x2="20.8762" y2="35.5609" gradientUnits="userSpaceOnUse">
<stop stop-color="#FF5855"/>
<stop offset="1" stop-color="#207DFF"/>
</linearGradient>
<linearGradient id="paint1_linear_220_7919" x1="15.5151" y1="17.9876" x2="24.0859" y2="36.3001" gradientUnits="userSpaceOnUse">
<stop stop-color="#FF5855"/>
<stop offset="1" stop-color="#207DFF"/>
</linearGradient>
<linearGradient id="paint2_linear_220_7919" x1="-0.483759" y1="10.4419" x2="18.9043" y2="27.7909" gradientUnits="userSpaceOnUse">
<stop stop-color="#5A0FAE"/>
<stop offset="1" stop-color="#207DFF"/>
</linearGradient>
<linearGradient id="paint3_linear_220_7919" x1="1.69005" y1="4.9072" x2="13.2019" y2="4.9072" gradientUnits="userSpaceOnUse">
<stop stop-color="#5A0FAE"/>
<stop offset="1" stop-color="#207DFF"/>
</linearGradient>
</defs>
</svg>
