<svg width="13" height="12" viewBox="0 0 13 12" fill="none" xmlns="http://www.w3.org/2000/svg">
<path d="M7.64995 11.7087L12.7145 6.70952C13.0952 6.33338 13.0952 5.66779 12.7145 5.29032L7.64995 0.291112C7.25447 -0.0983677 6.61552 -0.0970335 6.22273 0.295114C5.82994 0.687261 5.82994 1.3195 6.22542 1.71031L9.55739 5.00088L1.00887 5.00088C0.45063 5.00088 0 5.44904 0 6.00125C0 6.55346 0.45063 7.00163 1.00887 7.00163L9.55739 7.00163L6.22542 10.2909C6.02768 10.4869 5.92948 10.743 5.92948 11.0005C5.92948 11.2552 6.02768 11.5113 6.22273 11.7061C6.61552 12.0969 7.25447 12.0982 7.64995 11.7087Z" fill="#182F83"/>
</svg>
