<svg width="24" height="25" viewBox="0 0 24 25" fill="none" xmlns="http://www.w3.org/2000/svg">
<path fill-rule="evenodd" clip-rule="evenodd" d="M17.1801 4.50961C17.1801 3.17961 18.2601 2.09961 19.5901 2.09961C20.9201 2.09961 22.0001 3.17961 22.0001 4.50961C22.0001 5.83961 20.9201 6.91961 19.5901 6.91961C18.2601 6.91961 17.1801 5.83961 17.1801 4.50961ZM13.33 14.8589L16.22 11.1299L16.18 11.1499C16.34 10.9299 16.37 10.6499 16.26 10.3999C16.151 10.1499 15.91 9.97991 15.651 9.95991C15.38 9.92991 15.111 10.0499 14.95 10.2699L12.531 13.3999L9.76 11.2199C9.59 11.0899 9.39 11.0389 9.19 11.0599C8.991 11.0899 8.811 11.1989 8.69 11.3589L5.731 15.2099L5.67 15.2999C5.5 15.6189 5.58 16.0289 5.88 16.2499C6.02 16.3399 6.17 16.3999 6.34 16.3999C6.571 16.4099 6.79 16.2889 6.93 16.0999L9.44 12.8689L12.29 15.0099L12.38 15.0689C12.7 15.2389 13.1 15.1599 13.33 14.8589ZM15.45 3.87991C15.41 4.12991 15.39 4.37991 15.39 4.62991C15.39 6.87991 17.21 8.69891 19.45 8.69891C19.7 8.69891 19.94 8.66991 20.19 8.62991V16.6989C20.19 20.0899 18.19 22.0999 14.79 22.0999H7.401C4 22.0999 2 20.0899 2 16.6989V9.29991C2 5.89991 4 3.87991 7.401 3.87991H15.45Z" fill="#878D99"/>
</svg>
