<svg width="24" height="25" viewBox="0 0 24 25" fill="none" xmlns="http://www.w3.org/2000/svg">
<path d="M21 6.09961C21 7.75646 18.7614 9.09961 16 9.09961C13.2386 9.09961 11 7.75646 11 6.09961M21 6.09961C21 4.44276 18.7614 3.09961 16 3.09961C13.2386 3.09961 11 4.44276 11 6.09961M21 6.09961V10.0996M11 6.09961V10.0996M11 10.0996C11 11.7566 13.239 13.0996 16 13.0996C18.761 13.0996 21 11.7566 21 10.0996M11 10.0996V14.0996M21 10.0996V14.0996M11 14.0996C11 15.7566 13.239 17.0996 16 17.0996C18.761 17.0996 21 15.7566 21 14.0996M11 14.0996V18.0996C11 19.7566 13.239 21.0996 16 21.0996C18.761 21.0996 21 19.7566 21 18.0996V14.0996M7 9.09961H4.5C4.10218 9.09961 3.72064 9.25764 3.43934 9.53895C3.15804 9.82025 3 10.2018 3 10.5996C3 10.9974 3.15804 11.379 3.43934 11.6603C3.72064 11.9416 4.10218 12.0996 4.5 12.0996H5.5C5.89782 12.0996 6.27936 12.2576 6.56066 12.5389C6.84196 12.8203 7 13.2018 7 13.5996C7 13.9974 6.84196 14.379 6.56066 14.6603C6.27936 14.9416 5.89782 15.0996 5.5 15.0996H3M5 15.0996V16.0996M5 8.09961V9.09961" stroke="white" stroke-width="1.5" stroke-linecap="round" stroke-linejoin="round"/>
</svg>
