<svg width="20" height="21" viewBox="0 0 20 21" fill="none" xmlns="http://www.w3.org/2000/svg">
<path fill-rule="evenodd" clip-rule="evenodd" d="M2.54 0.0996094H5.92C7.33 0.0996094 8.46 1.24961 8.46 2.66061V6.06961C8.46 7.48961 7.33 8.62961 5.92 8.62961H2.54C1.14 8.62961 0 7.48961 0 6.06961V2.66061C0 1.24961 1.14 0.0996094 2.54 0.0996094ZM2.54 11.5693H5.92C7.33 11.5693 8.46 12.7103 8.46 14.1303V17.5393C8.46 18.9493 7.33 20.0993 5.92 20.0993H2.54C1.14 20.0993 0 18.9493 0 17.5393V14.1303C0 12.7103 1.14 11.5693 2.54 11.5693ZM17.4601 0.0996094H14.0801C12.6701 0.0996094 11.5401 1.24961 11.5401 2.66061V6.06961C11.5401 7.48961 12.6701 8.62961 14.0801 8.62961H17.4601C18.8601 8.62961 20.0001 7.48961 20.0001 6.06961V2.66061C20.0001 1.24961 18.8601 0.0996094 17.4601 0.0996094ZM14.0801 11.5693H17.4601C18.8601 11.5693 20.0001 12.7103 20.0001 14.1303V17.5393C20.0001 18.9493 18.8601 20.0993 17.4601 20.0993H14.0801C12.6701 20.0993 11.5401 18.9493 11.5401 17.5393V14.1303C11.5401 12.7103 12.6701 11.5693 14.0801 11.5693Z" fill="#878D99"/>
</svg>
