<svg width="12" height="12" viewBox="0 0 12 12" fill="none" xmlns="http://www.w3.org/2000/svg">
<path d="M11.712 8.95899C11.6183 10.7483 9.05815 12 6.00042 12C2.885 12 0.286133 10.7006 0.286133 8.85714V3.14286L0.288793 3.04101C0.382564 1.25175 2.94269 0 6.00042 0C9.11584 0 11.7147 1.29943 11.7147 3.14286V8.85714L11.712 8.95899ZM10.5725 5.066C9.52307 5.82619 7.85308 6.28571 6.00042 6.28571C4.1481 6.28571 2.47838 5.82636 1.42894 5.06642L1.42899 6C1.42899 6.9969 3.4352 8 6.00042 8C8.56564 8 10.5718 6.9969 10.5718 6L10.5725 5.066ZM6.00042 1.14286C3.4352 1.14286 1.42899 2.14596 1.42899 3.14286C1.42899 4.13975 3.4352 5.14286 6.00042 5.14286C8.56564 5.14286 10.5718 4.13975 10.5718 3.14286C10.5718 2.14596 8.56564 1.14286 6.00042 1.14286ZM10.5725 7.92314C9.52307 8.68333 7.85308 9.14286 6.00042 9.14286C4.1481 9.14286 2.47838 8.6835 1.42894 7.92356L1.42899 8.85714L1.43195 8.9236C1.51843 9.89813 3.4922 10.8571 6.00042 10.8571C8.56564 10.8571 10.5718 9.85404 10.5718 8.85714L10.5725 7.92314Z" fill="#FCDF64"/>
</svg>
