<svg width="32" height="32" viewBox="0 0 32 32" fill="none" xmlns="http://www.w3.org/2000/svg">
<path fill-rule="evenodd" clip-rule="evenodd" d="M29.3284 11.1668H23.6822C21.0547 11.1715 18.9261 13.2469 18.9213 15.8088C18.9178 18.3764 21.0487 20.4611 23.6822 20.4645H29.3332V20.8725C29.3332 25.3514 26.6179 28 22.0229 28H9.97791C5.38176 28 2.6665 25.3514 2.6665 20.8725V11.1171C2.6665 6.63816 5.38176 4 9.97791 4H22.0182C26.6132 4 29.3284 6.63816 29.3284 11.1171V11.1668ZM8.98591 11.1564H16.5059H16.5107H16.5201C17.0831 11.1541 17.5382 10.7069 17.5358 10.1569C17.5335 9.60797 17.0736 9.16424 16.5107 9.16655H8.98591C8.4265 9.16886 7.97258 9.61144 7.97021 10.158C7.96784 10.7069 8.42295 11.1541 8.98591 11.1564Z" fill="#207DFF"/>
<path opacity="0.4" d="M21.3829 16.3958C21.6617 17.664 22.7736 18.5563 24.0431 18.5331H28.3764C28.9046 18.5331 29.333 18.0956 29.333 17.5549V14.1795C29.3319 13.64 28.9046 13.2014 28.3764 13.2002H23.9411C22.4971 13.2048 21.3307 14.4035 21.333 15.8806C21.333 16.0535 21.35 16.2263 21.3829 16.3958Z" fill="#207DFF"/>
<ellipse cx="23.9998" cy="15.8665" rx="1.33333" ry="1.33333" fill="#207DFF"/>
</svg>
