<svg width="14" height="14" viewBox="0 0 14 14" fill="none" xmlns="http://www.w3.org/2000/svg">
<path fill-rule="evenodd" clip-rule="evenodd" d="M4.2077 0.666504H9.79165C11.9315 0.666504 13.6663 2.44061 13.6663 4.629V5.12377L13.6665 5.13478L13.6663 5.14579V8.67987L13.6665 8.69088L13.6663 8.7019V9.37067C13.6663 11.5591 11.9315 13.3332 9.79165 13.3332H4.2077C2.0678 13.3332 0.333008 11.5591 0.333008 9.37067V4.629C0.333008 2.44061 2.0678 0.666504 4.2077 0.666504ZM12.6973 4.629V4.63927H10.5666L10.4446 4.64271C9.27309 4.70813 8.34283 5.69926 8.34283 6.91283C8.34358 8.16855 9.33858 9.18562 10.5663 9.18639H12.6973V9.37067C12.6973 11.0117 11.3964 12.3422 9.79165 12.3422H4.2077C2.60299 12.3422 1.30206 11.0117 1.30206 9.37067V4.629C1.30206 2.98793 2.60299 1.65751 4.2077 1.65751H9.79165C11.3964 1.65751 12.6973 2.98793 12.6973 4.629ZM10.5669 5.63028H12.6973V8.19538H10.5666L10.4686 8.19146C9.8216 8.13998 9.31228 7.58726 9.31188 6.91253C9.31188 6.20479 9.87362 5.63072 10.5669 5.63028ZM11.347 6.87213C11.347 6.59847 11.13 6.37662 10.8625 6.37662H10.6611L10.5953 6.38115C10.3588 6.41396 10.1766 6.62127 10.1766 6.87213C10.1766 7.14579 10.3935 7.36763 10.6611 7.36763H10.8625L10.9282 7.36311C11.1647 7.3303 11.347 7.12298 11.347 6.87213ZM7.72012 4.16025C7.72012 3.88659 7.50319 3.66475 7.2356 3.66475H3.74769L3.68194 3.66927C3.44545 3.70208 3.26317 3.9094 3.26317 4.16025C3.26317 4.43391 3.4801 4.65576 3.74769 4.65576H7.2356L7.30134 4.65123C7.53784 4.61842 7.72012 4.41111 7.72012 4.16025Z" fill="#2688EB"/>
</svg>
