<svg width="20" height="21" viewBox="0 0 20 21" fill="none" xmlns="http://www.w3.org/2000/svg">
<path fill-rule="evenodd" clip-rule="evenodd" d="M0 10.0996C0 4.57961 4.47 0.0996094 10 0.0996094C15.52 0.0996094 20 4.57961 20 10.0996C20 15.6296 15.52 20.0996 10 20.0996C4.47 20.0996 0 15.6296 0 10.0996ZM12.23 11.9296L13.85 6.80961C13.96 6.45961 13.64 6.12961 13.29 6.23961L8.17 7.83961C7.96 7.90961 7.79 8.06961 7.73 8.27961L6.13 13.4096C6.02 13.7496 6.35 14.0796 6.69 13.9696L11.79 12.3696C12 12.3096 12.17 12.1396 12.23 11.9296Z" fill="white"/>
</svg>
