<svg width="28" height="28" viewBox="0 0 28 28" fill="none" xmlns="http://www.w3.org/2000/svg">
<path d="M15.4585 3.30572C15.7212 4.18152 15.9051 5.05732 17.3604 5.89759C18.9916 6.34048 19.7891 5.90146 20.5311 5.40685C21.3075 4.88924 21.5359 5.04147 21.8466 5.34775L22.2497 5.75058C22.2927 5.79355 22.3357 5.83652 22.3894 5.89023L22.5935 6.09432C22.9372 6.43805 23.0747 6.57555 22.5935 7.46925L22.4773 7.68306C22.0803 8.41438 21.7092 9.16794 22.1057 10.6473C22.9462 12.1135 23.8204 12.367 24.6946 12.5418C25.6096 12.7248 25.6635 12.994 25.6666 13.4303L25.6668 14.4863C25.6668 14.9724 25.6668 15.1668 24.6946 15.4585L24.4613 15.5276C23.6635 15.7639 22.8684 16.0343 22.1027 17.3604C21.6598 18.9916 22.0989 19.7891 22.5935 20.5311C23.1434 21.356 22.9372 21.5623 22.5935 21.906L22.3894 22.1101C22.282 22.2175 22.2175 22.282 22.1101 22.3894L21.906 22.5935C21.5623 22.9372 21.4248 23.0747 20.5311 22.5935L20.3173 22.4773C19.5858 22.0802 18.832 21.709 17.352 22.106C15.8867 22.9464 15.6333 23.8205 15.4585 24.6946C15.2755 25.6096 15.0064 25.6635 14.5701 25.6666L13.5141 25.6668C13.0279 25.6668 12.8335 25.6668 12.5418 24.6946C12.2791 23.8188 12.0952 22.943 10.64 22.1027C9.00871 21.6598 8.21118 22.0989 7.46925 22.5935C6.69281 23.1111 6.46445 22.9589 6.1537 22.6526L5.89023 22.3894C5.83652 22.3357 5.79355 22.2927 5.75058 22.2497L5.40685 21.906C5.06312 21.5623 4.92562 21.4248 5.40685 20.5311L5.58075 20.2101C5.95427 19.511 6.27164 18.7607 5.89488 17.354C5.05472 15.887 4.18022 15.6334 3.30572 15.4585C2.39069 15.2755 2.33686 15.0064 2.33369 14.5701L2.3335 13.5141C2.3335 13.0279 2.3335 12.8335 3.30572 12.5418C4.18152 12.2791 5.05732 12.0952 5.89759 10.64C6.34048 9.00871 5.90146 8.21118 5.40685 7.46925C4.85689 6.64428 5.06312 6.43805 5.40685 6.09432L5.68479 5.81638C5.73044 5.77072 5.77072 5.73044 5.81638 5.68479L6.09432 5.40685C6.43805 5.06312 6.57555 4.92562 7.46925 5.40685L7.79021 5.58075C8.4892 5.95419 9.23931 6.27149 10.6453 5.89515C12.1133 5.05492 12.3669 4.18032 12.5418 3.30572C12.7248 2.39069 12.994 2.33686 13.4303 2.33369L14.4863 2.3335C14.9724 2.3335 15.1668 2.3335 15.4585 3.30572ZM14.0002 8.50183C10.9626 8.50183 8.50016 10.9643 8.50016 14.0018C8.50016 17.0394 10.9626 19.5018 14.0002 19.5018C17.0377 19.5018 19.5002 17.0394 19.5002 14.0018C19.5002 10.9643 17.0377 8.50183 14.0002 8.50183Z" fill="#99A2AD"/>
</svg>
