<svg width="24" height="25" viewBox="0 0 24 25" fill="none" xmlns="http://www.w3.org/2000/svg">
<path fill-rule="evenodd" clip-rule="evenodd" d="M17.7689 8.48141H22C22 5.0842 19.9644 3.09961 16.5156 3.09961H7.48444C4.03556 3.09961 2 5.0842 2 8.43808V15.7611C2 19.115 4.03556 21.0996 7.48444 21.0996H16.5156C19.9644 21.0996 22 19.115 22 15.7611V15.4492H17.7689C15.8052 15.4492 14.2133 13.8971 14.2133 11.9826C14.2133 10.0681 15.8052 8.51608 17.7689 8.51608V8.48141ZM17.7689 9.97202H21.2533C21.6657 9.97202 22 10.2979 22 10.7V13.2306C21.9952 13.6307 21.6637 13.9539 21.2533 13.9585H17.8489C16.8548 13.9716 15.9855 13.308 15.76 12.3639C15.6471 11.7779 15.8056 11.1732 16.1931 10.7118C16.5805 10.2505 17.1573 9.97968 17.7689 9.97202ZM17.92 12.6326H18.2489C18.6711 12.6326 19.0133 12.2989 19.0133 11.8873C19.0133 11.4757 18.6711 11.142 18.2489 11.142H17.92C17.7181 11.1397 17.5236 11.2162 17.38 11.3546C17.2364 11.493 17.1555 11.6817 17.1556 11.8786C17.1555 12.2917 17.4964 12.6278 17.92 12.6326ZM6.73778 8.48141H12.3822C12.8044 8.48141 13.1467 8.14773 13.1467 7.7361C13.1467 7.32448 12.8044 6.9908 12.3822 6.9908H6.73778C6.31903 6.99077 5.9782 7.31921 5.97333 7.72744C5.97331 8.14048 6.31415 8.47666 6.73778 8.48141Z" fill="#B8C1CC"/>
</svg>
