<svg width="130" height="51" viewBox="0 0 130 51" fill="none" xmlns="http://www.w3.org/2000/svg">
<path d="M19.8712 12.8227C18.2853 12.8251 16.7065 13.0348 15.1749 13.4463C15.4556 12.91 15.7363 12.4609 15.9795 12.068C16.5283 11.1762 16.9587 10.4714 16.9587 9.61077V2.92502C16.9587 0.380441 11.8009 0 8.72622 0C5.65152 0 0.5 0.380441 0.5 2.92502V9.5983L2.13401 29.5183C2.1652 29.8302 2.17143 30.142 2.1839 30.485V30.5411C2.26424 32.7553 2.78171 34.9316 3.70649 36.945C4.63128 38.9583 5.94513 40.7688 7.57242 42.2724C10.9094 45.38 15.3051 47.0994 19.865 47.0809C29.6192 47.0809 37.5585 39.3973 37.5585 29.9487C37.5585 20.5 29.6254 12.8227 19.8712 12.8227Z" fill="#1F0242"/>
<path d="M16.8029 42.6219C22.5276 42.6219 27.1683 37.9812 27.1683 32.2565C27.1683 26.5319 22.5276 21.8911 16.8029 21.8911C11.0782 21.8911 6.4375 26.5319 6.4375 32.2565C6.4375 37.9812 11.0782 42.6219 16.8029 42.6219Z" fill="url(#paint0_linear_220_6107)"/>
<path d="M16.8031 21.8911C16.4469 21.8908 16.0909 21.9095 15.7366 21.9472C14.439 22.4962 13.2899 23.3448 12.3835 24.4235C11.4771 25.5022 10.8391 26.7803 10.5219 28.1531C10.2047 29.5258 10.2173 30.9543 10.5586 32.3213C10.8999 33.6883 11.5602 34.955 12.4854 36.0176C13.4106 37.0802 14.5745 37.9084 15.8815 38.4345C17.1886 38.9606 18.6017 39.1695 20.0051 39.0441C21.4085 38.9187 22.7621 38.4626 23.9552 37.7132C25.1484 36.9637 26.1469 35.9423 26.8692 34.7325C27.2402 33.2077 27.2603 31.6186 26.9277 30.085C26.5952 28.5513 25.9187 27.1132 24.9495 25.8791C23.9802 24.6449 22.7433 23.647 21.3322 22.9605C19.921 22.274 18.3724 21.9169 16.8031 21.9161V21.8911Z" fill="#1F0242"/>
<path d="M18.2187 36.5469C21.5082 36.5469 24.1748 33.8803 24.1748 30.5908C24.1748 27.3014 21.5082 24.6348 18.2187 24.6348C14.9293 24.6348 12.2627 27.3014 12.2627 30.5908C12.2627 33.8803 14.9293 36.5469 18.2187 36.5469Z" fill="#FF5855"/>
<path d="M18.0812 43.6069C20.9996 43.4984 23.7648 42.2728 25.8054 40.1836C27.8459 38.0943 29.0058 35.3009 29.0454 32.3808C29.0454 26.1441 23.8253 21.1235 17.389 21.1235C15.8325 21.1226 14.2906 21.4233 12.8486 22.0091L13.0794 20.0758C14.7945 19.2943 16.658 18.8923 18.5427 18.897C25.6152 18.897 31.3529 24.4352 31.3529 31.2707C31.3529 38.1061 25.6152 43.638 18.5427 43.638" fill="url(#paint1_linear_220_6107)"/>
<path d="M5.92022 35.4622C6.93742 38.0656 8.72246 40.2981 11.0383 41.8632C13.3542 43.4283 16.0913 44.2519 18.8863 44.2247C26.5076 44.2247 32.6819 38.2624 32.6819 30.9031C32.6819 23.5438 26.5076 17.5815 18.8863 17.5815C16.8374 17.58 14.8123 18.0204 12.949 18.8725L13.5165 15.3987C15.5357 14.5733 17.6966 14.1496 19.878 14.1513C28.9087 14.1513 36.2306 21.2175 36.2306 29.9302C36.2306 38.6429 28.9087 45.7153 19.878 45.7153C11.0343 45.7153 3.83092 38.9422 3.5378 30.4728C3.5378 30.1173 3.5378 29.7556 3.48167 29.3938L1.84766 9.57984C1.84766 8.7067 4.96601 8.00195 8.70803 8.00195C12.4501 8.00195 15.5996 8.7067 15.5996 9.57984C15.5996 11.1577 12.0322 13.3218 12.0322 21.6666L12.0634 22.0345C9.56247 23.1201 7.55078 25.0914 6.41462 27.5697C5.27847 30.0481 5.09795 32.8588 5.90774 35.4622H5.92022Z" fill="url(#paint2_linear_220_6107)"/>
<path d="M15.6181 2.92505C15.6181 2.05191 12.531 1.34717 8.72659 1.34717C4.9222 1.34717 1.86621 2.05191 1.86621 2.92505V9.59834C4.01401 8.55968 6.36888 8.02017 8.75464 8.02017C11.1404 8.02017 13.4953 8.55968 15.6431 9.59834" fill="url(#paint3_linear_220_6107)"/>
<path d="M22.8145 16.2905C22.8145 16.2905 30.2985 18.6605 33.816 25.683C33.816 25.683 32.157 17.6314 22.8145 16.2905Z" fill="white"/>
<path d="M8.72637 8.37598C8.22744 8.37598 7.73473 8.40716 7.26074 8.45081C7.66613 9.01835 8.78874 11.0079 8.78874 15.5607V23.6684L9.9051 22.683C9.9051 22.683 9.9051 19.0782 9.9051 15.1989C9.9051 11.1014 12.0568 9.46116 12.8925 8.96223C11.5351 8.58672 10.1346 8.38965 8.72637 8.37598Z" fill="white"/>
<path d="M17.6701 41.7857C15.6928 41.784 13.7569 41.2188 12.0893 40.1564C10.4217 39.094 9.09142 37.5783 8.25432 35.787C7.41722 33.9956 7.10798 32.0028 7.36284 30.042C7.6177 28.0812 8.4261 26.2337 9.69332 24.7158C8.68502 25.6667 7.87777 26.8102 7.31938 28.0787C6.761 29.3472 6.46283 30.7148 6.44252 32.1006C6.42221 33.4864 6.68017 34.8621 7.20115 36.1464C7.72213 37.4307 8.49552 38.5974 9.47553 39.5774C10.4555 40.5574 11.6222 41.3308 12.9065 41.8518C14.1908 42.3727 15.5666 42.6307 16.9524 42.6104C18.3381 42.5901 19.7058 42.2919 20.9742 41.7335C22.2427 41.1751 23.3862 40.3679 24.3371 39.3596C22.4712 40.9307 20.1093 41.7902 17.6701 41.7857Z" fill="white"/>
<path d="M21.0439 44.5363C24.6692 44.1643 28.0369 42.4915 30.5237 39.8276C30.5237 39.8276 28.1974 44.5675 21.0439 44.5363Z" fill="white"/>
<path d="M18.4181 29.0752C18.6471 29.1636 18.8584 29.2925 19.0418 29.4557L21.2496 25.9319C20.3446 25.3395 19.2877 25.0211 18.2061 25.0151C18.5553 25.4767 19.3474 26.9173 18.4181 29.0752Z" fill="#1F0242"/>
<path d="M19.46 29.9296C19.6092 30.1831 19.7008 30.4663 19.7281 30.7591L23.7882 30.4348C23.7762 30.14 23.745 29.8462 23.6947 29.5555C23.4686 28.8327 23.161 28.138 22.7779 27.4849C22.7779 27.4849 23.0585 29.4369 19.46 29.9296Z" fill="#1F0242"/>
<path d="M18.1814 32.9297C18.0444 32.962 17.9042 32.9787 17.7635 32.9796C17.6824 32.9796 17.6076 32.9796 17.5265 32.9796L17.4268 36.1354C17.6868 36.1752 17.9495 36.1961 18.2126 36.1977C19.1649 36.1977 20.1013 35.9528 20.9318 35.4867C20.0836 35.5117 18.3934 35.3059 18.1814 32.9297Z" fill="#1F0242"/>
<path d="M17.7691 32.3808C18.5406 32.3808 19.1661 31.7469 19.1661 30.965C19.1661 30.1832 18.5406 29.5493 17.7691 29.5493C16.9975 29.5493 16.3721 30.1832 16.3721 30.965C16.3721 31.7469 16.9975 32.3808 17.7691 32.3808Z" fill="#1F0242"/>
<path d="M19.7525 31.2769C19.6939 31.6457 19.5341 31.9912 19.291 32.2747L21.9104 34.7694C22.8398 33.9571 23.4754 32.8611 23.7191 31.6511C23.6629 31.7197 22.6339 33.5782 19.7525 31.2769Z" fill="#1F0242"/>
<path d="M16.185 32.0566C16.0576 31.9574 15.9622 31.8229 15.9106 31.6699L13.3535 33.3226C13.4953 33.5769 13.658 33.8189 13.84 34.0461C14.034 34.2674 14.2423 34.4758 14.4637 34.6698C15.1048 35.2546 15.8736 35.6817 16.7089 35.9171C16.291 35.6427 14.4824 34.0024 16.185 32.0566Z" fill="#1F0242"/>
<path d="M15.911 30.2667C16.0012 30.0185 16.1413 29.7914 16.3226 29.5994L13.0795 28.4082C12.786 29.0984 12.6353 29.841 12.6367 30.5911C12.6392 30.9237 12.6705 31.2555 12.7303 31.5827C13.0375 31.0398 13.5175 30.6152 14.0939 30.3768C14.6704 30.1383 15.31 30.0995 15.911 30.2667Z" fill="#1F0242"/>
<path d="M17.1834 29.0571C17.3701 28.9928 17.566 28.9591 17.7635 28.9574H17.8882L16.6409 25.2153C15.7015 25.4993 14.8538 26.0264 14.1836 26.7433C14.8223 26.8863 15.422 27.1676 15.9403 27.5674C16.4586 27.9671 16.8829 28.4757 17.1834 29.0571Z" fill="#1F0242"/>
<path d="M49.4082 26.9241V12.1431H52.5266V17.438C53.017 16.9513 53.5993 16.5668 54.2395 16.3068C54.8797 16.0468 55.5652 15.9165 56.2562 15.9235C56.9471 15.9304 57.6298 16.0745 58.2647 16.3474C58.8995 16.6202 59.4739 17.0164 59.9545 17.5129C60.9314 18.7297 61.4244 20.2644 61.339 21.8224C61.3465 22.6124 61.2243 23.3983 60.9773 24.1487C60.7671 24.7963 60.4347 25.3975 59.9982 25.9199C59.5762 26.4069 59.0742 26.8182 58.5138 27.1361C57.9305 27.4709 57.2996 27.7148 56.6428 27.8596C55.9451 28.0176 55.2315 28.095 54.5161 28.0903C52.7459 28.1041 50.997 27.7047 49.4082 26.9241ZM52.5266 25.0531C53.2019 25.3426 53.9311 25.485 54.6657 25.4709C55.5842 25.5114 56.4813 25.1863 57.1604 24.5666C57.5042 24.2094 57.7685 23.7837 57.9362 23.3172C58.1039 22.8507 58.171 22.3541 58.1333 21.8598C58.143 21.3498 58.0671 20.8418 57.9088 20.3568C57.7879 19.9754 57.5735 19.6302 57.2852 19.3527C57.0344 19.1185 56.7398 18.9362 56.4183 18.8163C56.0971 18.6969 55.7567 18.6377 55.4142 18.6417C54.3756 18.6054 53.3611 18.9592 52.5702 19.6334L52.5266 25.0531Z" fill="white"/>
<path d="M62.4738 22.0654C62.4678 21.2337 62.6115 20.4077 62.8979 19.6269C63.1668 18.9 63.5781 18.2342 64.1078 17.6685C64.6593 17.0999 65.3274 16.6573 66.0662 16.3713C66.8952 16.0504 67.778 15.8917 68.6669 15.9035C69.6056 15.8862 70.5384 16.0558 71.411 16.4025C72.1596 16.6903 72.8303 17.1496 73.3693 17.7434C73.8669 18.3006 74.2523 18.9486 74.5044 19.6518C74.7689 20.3814 74.9019 21.1522 74.8973 21.9282C74.9118 23.0116 74.6613 24.0821 74.1676 25.0466C73.6785 25.9768 72.9285 26.7441 72.0097 27.2544C70.9911 27.8157 69.8421 28.0976 68.6793 28.0714C67.7461 28.0818 66.8199 27.908 65.9539 27.56C65.2119 27.2694 64.5463 26.8129 64.0081 26.2253C63.5095 25.67 63.1221 25.0243 62.8667 24.3231C62.6045 23.5994 62.4715 22.8352 62.4738 22.0654ZM65.7107 21.8845C65.7078 22.337 65.7644 22.7878 65.8791 23.2254C65.9811 23.6291 66.1543 24.0114 66.3905 24.3543C66.6263 24.6976 66.9462 24.9746 67.3197 25.1588C67.7396 25.3607 68.2011 25.4611 68.6669 25.4519C69.1568 25.4621 69.6428 25.3619 70.0888 25.1588C70.4699 24.9836 70.794 24.7048 71.0244 24.3543C71.2391 24.0252 71.4031 23.6657 71.5108 23.2878C71.6175 22.8956 71.6699 22.4906 71.6667 22.0841C71.6736 21.4933 71.5744 20.906 71.3736 20.3503C71.1746 19.8333 70.8302 19.3849 70.382 19.0593C69.882 18.7045 69.2797 18.5227 68.6669 18.5417C68.2672 18.5366 67.8699 18.6042 67.4944 18.7412C67.1773 18.8529 66.888 19.0316 66.6462 19.2651C66.4251 19.4899 66.2418 19.7489 66.1036 20.0322C65.964 20.3174 65.8613 20.6192 65.798 20.9303C65.7369 21.2447 65.7076 21.5644 65.7107 21.8845Z" fill="white"/>
<path d="M76.0705 22.0654C76.0645 21.2337 76.2081 20.4077 76.4946 19.6269C76.761 18.8988 77.1726 18.2326 77.7045 17.6685C78.256 17.0999 78.9241 16.6573 79.6628 16.3713C80.4898 16.0509 81.3705 15.8921 82.2573 15.9035C83.1981 15.8862 84.133 16.0558 85.0077 16.4025C85.7554 16.6919 86.4258 17.151 86.966 17.7434C87.4614 18.3022 87.8465 18.9498 88.1011 19.6518C88.3656 20.3814 88.4986 21.1522 88.494 21.9282C88.5085 23.0116 88.258 24.0821 87.7643 25.0466C87.2731 25.9753 86.5237 26.742 85.6064 27.2544C84.5857 27.816 83.4346 28.0978 82.2698 28.0714C81.3385 28.0818 80.4144 27.9079 79.5506 27.56C78.8078 27.271 78.1418 26.8142 77.6047 26.2253C77.1062 25.67 76.7188 25.0243 76.4634 24.3231C76.2011 23.5994 76.0681 22.8352 76.0705 22.0654ZM79.3011 21.8845C79.2983 22.337 79.3549 22.7878 79.4695 23.2254C79.5765 23.6285 79.7516 24.0102 79.9872 24.3543C80.2229 24.6976 80.5429 24.9746 80.9164 25.1588C81.3344 25.3599 81.7936 25.4603 82.2573 25.4519C82.7493 25.4626 83.2375 25.3624 83.6855 25.1588C84.0643 24.98 84.3875 24.702 84.621 24.3543C84.8358 24.0252 84.9997 23.6657 85.1075 23.2878C85.2111 22.895 85.2635 22.4904 85.2634 22.0841C85.2714 21.4927 85.1699 20.9049 84.964 20.3503C84.7592 19.8033 84.3878 19.3344 83.9021 19.0099C83.4164 18.6853 82.8411 18.5216 82.2573 18.5417C81.8596 18.5367 81.4644 18.6043 81.091 18.7412C80.7739 18.8529 80.4846 19.0316 80.2429 19.2651C80.0178 19.4866 79.8341 19.7463 79.7003 20.0322C79.5578 20.3162 79.455 20.6184 79.3947 20.9303C79.3314 21.2444 79.3001 21.5641 79.3011 21.8845Z" fill="white"/>
<path d="M89.778 19.6829C89.7497 19.146 89.8537 18.6104 90.081 18.1232C90.3083 17.636 90.6519 17.2121 91.0814 16.8888C92.1869 16.1587 93.5018 15.8124 94.8235 15.9034C96.2039 15.8793 97.5702 16.1851 98.8087 16.7953V19.3336C98.2342 19.0835 97.6309 18.9054 97.0126 18.8035C96.2435 18.6395 95.4601 18.5518 94.6738 18.5416C94.4557 18.5299 94.2371 18.5299 94.0189 18.5416C93.8401 18.5592 93.6641 18.599 93.495 18.6601C93.3286 18.7156 93.1871 18.8282 93.0959 18.9781C93.0009 19.1584 92.9558 19.3608 92.9649 19.5644C92.959 19.7773 93.0249 19.986 93.152 20.1569C93.3084 20.3427 93.5104 20.4846 93.7383 20.5685C93.9913 20.6789 94.2545 20.7646 94.5241 20.8242L95.5282 21.055L95.7029 21.0924L96.6196 21.3044C96.8629 21.3605 97.1373 21.4354 97.4429 21.5352C97.7 21.6115 97.9487 21.7139 98.1851 21.8408C98.3927 21.955 98.589 22.0886 98.7713 22.2399C98.9603 22.3911 99.1209 22.5749 99.2453 22.7825C99.3665 23.0054 99.4607 23.242 99.5259 23.4873C99.5985 23.7853 99.6341 24.0911 99.632 24.3978C99.6405 24.9252 99.5151 25.4462 99.2675 25.9119C99.0199 26.3776 98.6582 26.773 98.2162 27.0609C97.1194 27.7755 95.8255 28.1267 94.5179 28.065C92.9358 28.0906 91.3732 27.7128 89.9775 26.9673V24.3729C90.707 24.7031 91.4675 24.96 92.2477 25.14C93.0615 25.3603 93.8994 25.4797 94.7424 25.4955C95.1757 25.5145 95.6063 25.4176 95.9897 25.2148C96.1365 25.1417 96.2595 25.0285 96.3445 24.8883C96.4295 24.7481 96.473 24.5867 96.47 24.4228C96.4712 24.3145 96.4464 24.2075 96.3975 24.1109C96.3487 24.0143 96.2773 23.9308 96.1893 23.8677C95.9619 23.7086 95.7021 23.6021 95.4284 23.5559L94.3557 23.3438L93.1084 23.1006C92.6797 23.0208 92.2613 22.8931 91.861 22.7201C91.4807 22.558 91.1223 22.3485 90.7945 22.0965C90.4608 21.8411 90.1987 21.5038 90.0337 21.1173C89.8522 20.6614 89.7652 20.1734 89.778 19.6829Z" fill="white"/>
<path d="M101.16 24.3542V14.1509L104.322 13.1094V16.3213H107.802V18.7474H104.322V23.8677C104.305 24.0583 104.332 24.2503 104.402 24.4288C104.471 24.6072 104.58 24.7674 104.721 24.8968C105.074 25.1335 105.496 25.2435 105.919 25.2086C106.483 25.2331 107.044 25.1037 107.54 24.8344V27.4289C106.714 27.8726 105.784 28.0879 104.846 28.0525C102.389 28.0193 101.16 26.7865 101.16 24.3542Z" fill="white"/>
<path d="M108.388 21.9535C108.381 21.2088 108.492 20.4676 108.719 19.7582C108.915 19.1409 109.222 18.5641 109.623 18.0555C110.005 17.5903 110.46 17.1901 110.97 16.8706C111.479 16.5484 112.034 16.3065 112.617 16.1533C113.228 15.9973 113.857 15.9198 114.488 15.9226C115.343 15.9059 116.192 16.0651 116.982 16.3903C117.652 16.6598 118.239 17.1007 118.685 17.6689C119.096 18.212 119.407 18.8246 119.602 19.4775C119.808 20.176 119.908 20.9011 119.901 21.6292C119.897 22.1908 119.853 22.7514 119.77 23.3068H111.556C111.601 23.6622 111.733 24.0012 111.939 24.2938C112.146 24.5864 112.421 24.8236 112.741 24.9845C113.54 25.3685 114.419 25.5525 115.305 25.5209C116.536 25.4634 117.753 25.226 118.916 24.8161V27.3108C117.665 27.9157 116.281 28.1926 114.893 28.1154C113.893 28.1347 112.898 27.9742 111.956 27.6414C111.179 27.372 110.479 26.9183 109.916 26.3192C109.402 25.758 109.007 25.0981 108.756 24.3796C108.496 23.5978 108.371 22.7773 108.388 21.9535ZM111.444 21.2113H116.933C116.985 20.4742 116.745 19.7461 116.265 19.1844C116.027 18.9524 115.743 18.7718 115.432 18.6538C115.121 18.5358 114.789 18.4829 114.457 18.4983C113.688 18.46 112.934 18.7166 112.349 19.2156C112.07 19.4699 111.845 19.7777 111.688 20.1205C111.53 20.4633 111.443 20.8342 111.432 21.2113H111.444Z" fill="white"/>
<path d="M121.941 27.6973V16.2966H124.891L125.004 18.205C125.746 16.7145 127.124 15.9723 129.126 15.9723C129.251 15.9624 129.376 15.9624 129.5 15.9723V19.0595C129.069 18.9708 128.631 18.9269 128.191 18.9285C127.543 18.9193 126.902 19.0624 126.32 19.3463C125.769 19.6233 125.344 20.0977 125.128 20.6748V27.6786L121.941 27.6973Z" fill="white"/>
<path d="M49.1963 50.081V34.3271H52.1462L52.2148 36.117C52.5629 35.432 53.1009 34.8619 53.7645 34.4748C54.4282 34.0876 55.1893 33.8999 55.9569 33.9341C56.7705 33.92 57.5779 34.0773 58.3268 34.3957C58.9765 34.6703 59.5501 35.0983 59.9983 35.643C60.4379 36.1996 60.768 36.8345 60.9712 37.514C61.1999 38.2572 61.3114 39.0316 61.3017 39.8091C61.3067 40.6274 61.176 41.4409 60.915 42.2165C60.6796 42.9474 60.3141 43.6299 59.8361 44.2309C59.3585 44.8292 58.7476 45.3076 58.0524 45.628C57.2963 45.9769 56.4715 46.1517 55.6388 46.1394C55.018 46.1604 54.4003 46.0438 53.8299 45.798C53.2595 45.5522 52.7505 45.1831 52.3396 44.7174V50.0997L49.1963 50.081ZM52.3146 42.4659C53.1358 43.1264 54.168 43.4675 55.2209 43.4264C55.6659 43.4275 56.1052 43.3272 56.5057 43.1333C56.8657 42.9554 57.1731 42.6867 57.3975 42.3537C57.6294 42.0145 57.7984 41.6363 57.8965 41.2373C58.0097 40.7889 58.0642 40.3277 58.0586 39.8653C58.103 39.0091 57.852 38.1636 57.3477 37.4704C57.0891 37.1636 56.7616 36.9223 56.392 36.7663C56.0224 36.6102 55.6211 36.5437 55.2209 36.5723C54.671 36.5747 54.1259 36.6761 53.6118 36.8716C53.1341 37.0325 52.6931 37.2869 52.3146 37.62V42.4659Z" fill="white"/>
<path d="M62.4738 40.0958C62.4678 39.2641 62.6115 38.4381 62.8979 37.6572C63.1668 36.9304 63.5781 36.2646 64.1078 35.6989C64.661 35.1322 65.3286 34.69 66.0662 34.4017C66.8952 34.0808 67.778 33.922 68.6669 33.9339C69.6054 33.9197 70.5376 34.0892 71.411 34.4329C72.1596 34.7207 72.8303 35.1799 73.3693 35.7738C73.8683 36.3323 74.2538 36.9826 74.5044 37.6884C74.7699 38.4178 74.9029 39.1887 74.8973 39.9648C74.9128 41.0483 74.6623 42.1191 74.1676 43.0832C73.6785 44.0134 72.9285 44.7807 72.0097 45.291C70.9922 45.8551 69.8424 46.1372 68.6793 46.108C67.7468 46.1173 66.8212 45.9457 65.9539 45.6028C65.2217 45.3104 64.565 44.8563 64.033 44.2744C63.5345 43.7191 63.147 43.0734 62.8917 42.3722C62.6182 41.6443 62.4767 40.8734 62.4738 40.0958ZM65.7107 39.9149C65.7078 40.3673 65.7644 40.8182 65.8791 41.2558C65.9812 41.6614 66.1543 42.0457 66.3905 42.3909C66.6264 42.7325 66.9465 43.0074 67.3197 43.1892C67.7396 43.391 68.2011 43.4915 68.6669 43.4823C69.1568 43.4925 69.6428 43.3923 70.0888 43.1892C70.4694 43.0162 70.7936 42.7396 71.0244 42.3909C71.2392 42.0596 71.4031 41.698 71.5108 41.3182C71.6175 40.926 71.6699 40.521 71.6667 40.1145C71.6737 39.5257 71.5744 38.9405 71.3736 38.3869C71.1763 37.8672 70.8317 37.4164 70.382 37.0897C69.882 36.7348 69.2797 36.5531 68.6669 36.5721C68.2672 36.567 67.8699 36.6346 67.4944 36.7716C67.1793 36.8874 66.8908 37.0656 66.6462 37.2955C66.4251 37.5202 66.2418 37.7793 66.1036 38.0626C65.9648 38.3481 65.8622 38.6498 65.798 38.9607C65.7369 39.275 65.7076 39.5947 65.7107 39.9149Z" fill="white"/>
<path d="M76.0705 40.0958C76.0645 39.2641 76.2081 38.4381 76.4946 37.6572C76.761 36.9292 77.1726 36.2629 77.7045 35.6989C78.2576 35.1322 78.9253 34.69 79.6628 34.4017C80.4898 34.0813 81.3705 33.9225 82.2573 33.9339C83.1978 33.9197 84.1321 34.0892 85.0077 34.4329C85.7554 34.7223 86.4258 35.1813 86.966 35.7738C87.4628 36.3339 87.8481 36.9838 88.1011 37.6884C88.3666 38.4178 88.4996 39.1887 88.494 39.9648C88.5095 41.0483 88.259 42.1191 87.7643 43.0832C87.2731 44.0119 86.5237 44.7787 85.6064 45.291C84.5867 45.8554 83.4349 46.1374 82.2698 46.108C81.3392 46.1173 80.4157 45.9457 79.5506 45.6028C78.8074 45.3116 78.1414 44.8528 77.6047 44.2619C77.1062 43.7066 76.7188 43.0609 76.4634 42.3597C76.1999 41.6342 76.0669 40.8677 76.0705 40.0958ZM79.3011 39.9149C79.2983 40.3673 79.3549 40.8182 79.4695 41.2558C79.5764 41.6608 79.7515 42.0446 79.9872 42.3909C80.2231 42.7325 80.5432 43.0075 80.9164 43.1892C81.3344 43.3903 81.7936 43.4907 82.2573 43.4823C82.7493 43.493 83.2375 43.3928 83.6855 43.1892C84.0638 43.0126 84.3872 42.7367 84.621 42.3909C84.8358 42.0596 84.9998 41.698 85.1075 41.3182C85.3546 40.3488 85.3046 39.3275 84.964 38.3869C84.7714 37.8647 84.4258 37.4126 83.9724 37.0897C83.4728 36.734 82.8703 36.5522 82.2573 36.5721C81.8596 36.5671 81.4644 36.6347 81.091 36.7716C80.7759 36.8874 80.4875 37.0656 80.2429 37.2955C80.0178 37.5169 79.8341 37.7767 79.7003 38.0626C79.5587 38.347 79.456 38.649 79.3947 38.9607C79.3314 39.2748 79.3001 39.5945 79.3011 39.9149Z" fill="white"/>
<path d="M90.3271 45.7337V31.6138H93.4892V45.7337H90.3271Z" fill="white"/>
<path d="M96.1396 14.2319H93.4453V17.1382H96.1396V14.2319Z" fill="white"/>
<path d="M96.1396 27.0547H93.4453V29.961H96.1396V27.0547Z" fill="white"/>
<defs>
<linearGradient id="paint0_linear_220_6107" x1="10.8967" y1="25.4585" x2="23.1768" y2="39.5909" gradientUnits="userSpaceOnUse">
<stop stop-color="#FF5855"/>
<stop offset="1" stop-color="#207DFF"/>
</linearGradient>
<linearGradient id="paint1_linear_220_6107" x1="17.2081" y1="20.0259" x2="26.7503" y2="40.4137" gradientUnits="userSpaceOnUse">
<stop stop-color="#FF5855"/>
<stop offset="1" stop-color="#207DFF"/>
</linearGradient>
<linearGradient id="paint2_linear_220_6107" x1="-0.603368" y1="11.6255" x2="20.9819" y2="30.9405" gradientUnits="userSpaceOnUse">
<stop stop-color="#5A0FAE"/>
<stop offset="1" stop-color="#207DFF"/>
</linearGradient>
<linearGradient id="paint3_linear_220_6107" x1="1.81632" y1="5.4634" x2="14.6327" y2="5.4634" gradientUnits="userSpaceOnUse">
<stop stop-color="#5A0FAE"/>
<stop offset="1" stop-color="#207DFF"/>
</linearGradient>
</defs>
</svg>
