<svg width="20" height="20" viewBox="0 0 20 20" fill="none" xmlns="http://www.w3.org/2000/svg">
<path fill-rule="evenodd" clip-rule="evenodd" d="M10.0176 0.0749512C4.50572 0.0749512 0.0361328 4.61991 0.0361328 10.2268C0.0361328 14.7123 2.89613 18.5177 6.86208 19.8601C7.36093 19.9541 7.54407 19.6399 7.54407 19.3717C7.54407 19.1297 7.53481 18.3299 7.53051 17.4816C4.75365 18.0958 4.1677 16.2838 4.1677 16.2838C3.71365 15.1104 3.05944 14.7984 3.05944 14.7984C2.15382 14.1683 3.1277 14.1812 3.1277 14.1812C4.13002 14.2527 4.65778 15.2274 4.65778 15.2274C5.54803 16.7794 6.99283 16.3307 7.56241 16.0713C7.652 15.4153 7.91068 14.9672 8.19613 14.7138C5.97911 14.4571 3.64853 13.5866 3.64853 9.69662C3.64853 8.58824 4.03845 7.68261 4.67696 6.97166C4.57332 6.71579 4.23167 5.6834 4.77365 4.28503C4.77365 4.28503 5.61184 4.01218 7.51927 5.32565C8.31547 5.10072 9.16936 4.98791 10.0176 4.98405C10.8659 4.98791 11.7204 5.10072 12.5181 5.32565C14.4232 4.01218 15.2603 4.28503 15.2603 4.28503C15.8036 5.6834 15.4618 6.71579 15.3581 6.97166C15.9981 7.68261 16.3854 8.58824 16.3854 9.69662C16.3854 13.5958 14.0503 14.4544 11.8277 14.7057C12.1857 15.0208 12.5047 15.6386 12.5047 16.5858C12.5047 17.9439 12.4932 19.0372 12.4932 19.3717C12.4932 19.6419 12.6728 19.9585 13.1788 19.8588C17.1426 18.5149 19.9989 14.7108 19.9989 10.2268C19.9989 4.61991 15.53 0.0749512 10.0176 0.0749512Z" fill="white" fill-opacity="0.84"/>
<path fill-rule="evenodd" clip-rule="evenodd" d="M3.81663 14.6509C3.79464 14.7015 3.71663 14.7165 3.64555 14.6819C3.57316 14.6487 3.5325 14.58 3.55597 14.5294C3.57745 14.4774 3.65564 14.4631 3.72787 14.4976C3.80043 14.5309 3.84175 14.6003 3.81663 14.6509Z" fill="white" fill-opacity="0.84"/>
<path fill-rule="evenodd" clip-rule="evenodd" d="M4.22093 15.1095C4.17332 15.1544 4.08026 15.1336 4.01712 15.0626C3.95183 14.9919 3.9396 14.8972 3.98787 14.8517C4.03696 14.8068 4.12721 14.8278 4.19266 14.8986C4.25795 14.9702 4.27068 15.0642 4.22093 15.1095Z" fill="white" fill-opacity="0.84"/>
<path fill-rule="evenodd" clip-rule="evenodd" d="M4.61448 15.6942C4.55332 15.7375 4.45332 15.6969 4.3915 15.6067C4.33035 15.5164 4.33035 15.4081 4.39283 15.3647C4.45481 15.3214 4.55332 15.3604 4.61597 15.45C4.67696 15.5416 4.67696 15.65 4.61448 15.6942Z" fill="white" fill-opacity="0.84"/>
<path fill-rule="evenodd" clip-rule="evenodd" d="M5.15365 16.2591C5.09894 16.3205 4.98241 16.304 4.89712 16.2203C4.80985 16.1384 4.78555 16.0222 4.84043 15.9609C4.8958 15.8993 5.01299 15.9167 5.09894 15.9997C5.18555 16.0814 5.212 16.1984 5.15365 16.2591Z" fill="white" fill-opacity="0.84"/>
<path fill-rule="evenodd" clip-rule="evenodd" d="M5.89745 16.5871C5.87332 16.6666 5.76109 16.7028 5.64803 16.669C5.53514 16.6342 5.46126 16.541 5.48407 16.4607C5.50754 16.3807 5.62026 16.343 5.73415 16.3791C5.84688 16.4138 5.92093 16.5062 5.89745 16.5871Z" fill="white" fill-opacity="0.84"/>
<path fill-rule="evenodd" clip-rule="evenodd" d="M6.71431 16.648C6.71712 16.7317 6.62126 16.8011 6.50258 16.8025C6.38324 16.8053 6.28671 16.7376 6.28539 16.6552C6.28539 16.5706 6.37911 16.5019 6.49845 16.4998C6.61712 16.4975 6.71431 16.5647 6.71431 16.648Z" fill="white" fill-opacity="0.84"/>
<path fill-rule="evenodd" clip-rule="evenodd" d="M7.47448 16.5163C7.48869 16.598 7.40621 16.6819 7.28836 16.7041C7.1725 16.7258 7.06522 16.6754 7.05051 16.5943C7.03613 16.5106 7.1201 16.4267 7.2358 16.405C7.35382 16.3842 7.45944 16.4333 7.47448 16.5163Z" fill="white" fill-opacity="0.84"/>
</svg>
