<svg width="20" height="20" viewBox="0 0 20 20" fill="none" xmlns="http://www.w3.org/2000/svg">
<path fill-rule="evenodd" clip-rule="evenodd" d="M20 10C20 15.5228 15.5228 20 10 20C4.47715 20 0 15.5228 0 10C0 4.47715 4.47715 0 10 0C15.5228 0 20 4.47715 20 10ZM4.74634 6.34749C4.86856 6.46023 4.93098 6.6258 4.91441 6.79331V12.8246C4.95068 13.0421 4.88366 13.2644 4.73389 13.4232L3.33333 15.1619V15.3912H7.3047V15.1619L5.90414 13.4232C5.75327 13.2646 5.68211 13.0439 5.71117 12.8246V7.60851L9.19701 15.3912H9.60162L12.5957 7.60851V13.8117C12.5957 13.9773 12.5957 14.0092 12.4899 14.1174L11.413 15.1874V15.4167H16.6418V15.1874L15.6022 14.1429C15.5105 14.0713 15.465 13.9537 15.484 13.8372V6.1628C15.465 6.04634 15.5105 5.92868 15.6022 5.85709L16.6667 4.81261V4.58333H12.9816L10.3548 11.2897L7.36695 4.58333H3.5014V4.81261L4.74634 6.34749Z" fill="white" fill-opacity="0.84"/>
</svg>
