<svg width="20" height="20" viewBox="0 0 20 20" fill="none" xmlns="http://www.w3.org/2000/svg">
<path d="M16.9419 3.37437C15.6279 2.76252 14.2407 2.32845 12.8158 2.08325C12.6208 2.43777 12.4444 2.80252 12.2872 3.17599C10.7694 2.94336 9.22586 2.94336 7.70802 3.17599C7.55081 2.80256 7.37438 2.43781 7.17947 2.08325C5.75362 2.33052 4.36551 2.76562 3.05017 3.37757C0.438871 7.30694 -0.26901 11.1387 0.0849306 14.9161C1.61417 16.0652 3.32583 16.9392 5.14549 17.4999C5.55523 16.9394 5.91779 16.3448 6.22934 15.7224C5.6376 15.4977 5.06647 15.2203 4.52256 14.8937C4.66571 14.7881 4.80571 14.6793 4.94099 14.5737C6.52365 15.3307 8.25105 15.7232 9.99998 15.7232C11.7489 15.7232 13.4763 15.3307 15.059 14.5737C15.1958 14.6873 15.3358 14.7961 15.4774 14.8937C14.9324 15.2209 14.3603 15.4987 13.7675 15.724C14.0786 16.3461 14.4412 16.9403 14.8513 17.4999C16.6726 16.9414 18.3855 16.0679 19.915 14.9177C20.3303 10.5371 19.2056 6.74057 16.9419 3.37437ZM6.67766 12.593C5.69135 12.593 4.8765 11.6827 4.8765 10.5627C4.8765 9.44281 5.66303 8.52446 6.67452 8.52446C7.686 8.52446 8.49456 9.44281 8.47725 10.5627C8.45995 11.6827 7.68285 12.593 6.67766 12.593ZM13.3223 12.593C12.3344 12.593 11.5227 11.6827 11.5227 10.5627C11.5227 9.44281 12.3092 8.52446 13.3223 8.52446C14.3354 8.52446 15.1376 9.44281 15.1203 10.5627C15.103 11.6827 14.3275 12.593 13.3223 12.593Z" fill="white" fill-opacity="0.84"/>
</svg>
