<svg width="24" height="25" viewBox="0 0 24 25" fill="none" xmlns="http://www.w3.org/2000/svg">
<path d="M11.0404 3.69941C9.49855 3.69941 8.45042 3.70081 7.64026 3.76701C6.85111 3.83148 6.44754 3.94835 6.16602 4.09179C5.48864 4.43693 4.93791 4.98766 4.59277 5.66505C4.44933 5.94657 4.33246 6.35013 4.26798 7.13928C4.20179 7.94944 4.20039 8.99757 4.20039 10.5394V13.6594C4.20039 14.3612 4.20179 14.7792 4.22711 15.0892C4.23792 15.2215 4.25115 15.3002 4.26039 15.3428V15.4594C4.26039 16.3727 4.26039 16.9757 4.34245 17.4295C4.09637 17.3909 3.89354 17.3309 3.71081 17.2378C3.25922 17.0077 2.89207 16.6406 2.66197 16.189C2.40039 15.6756 2.40039 15.0035 2.40039 13.6594V10.5394C2.40039 7.51513 2.40039 6.00299 2.98896 4.84787C3.50667 3.83179 4.33277 3.0057 5.34884 2.48798C6.50397 1.89941 8.01611 1.89941 11.0404 1.89941H13.4404C14.7845 1.89941 15.4566 1.89941 15.97 2.161C16.4216 2.39109 16.7887 2.75825 17.0188 3.20984C17.1027 3.37439 17.1596 3.55524 17.1983 3.76931C16.753 3.69942 16.1661 3.69941 15.3004 3.69941H11.0404Z" fill="#B8C1CC"/>
<path fill-rule="evenodd" clip-rule="evenodd" d="M6.12039 9.33941C6.12039 7.99529 6.12039 7.32323 6.38198 6.80984C6.61207 6.35825 6.97922 5.99109 7.43081 5.761C7.9442 5.49941 8.61626 5.49941 9.96039 5.49941H17.1604C18.5045 5.49941 19.1766 5.49941 19.69 5.761C20.1416 5.99109 20.5087 6.35825 20.7388 6.80984C21.0004 7.32323 21.0004 7.99529 21.0004 9.33941V18.4594C21.0004 19.8035 21.0004 20.4756 20.7388 20.989C20.5087 21.4406 20.1416 21.8077 19.69 22.0378C19.1766 22.2994 18.5045 22.2994 17.1604 22.2994H9.96039C8.61627 22.2994 7.9442 22.2994 7.43081 22.0378C6.97922 21.8077 6.61207 21.4406 6.38198 20.989C6.12039 20.4756 6.12039 19.8035 6.12039 18.4594V9.33941ZM9.96039 7.29941H17.1604C17.8622 7.29941 18.2802 7.30081 18.5901 7.32613C18.7793 7.34159 18.8588 7.36198 18.8801 7.36859C18.9872 7.42504 19.0748 7.51259 19.1312 7.61973C19.1378 7.64104 19.1582 7.72054 19.1737 7.90968C19.199 8.21958 19.2004 8.63765 19.2004 9.33941V18.4594C19.2004 19.1612 19.199 19.5792 19.1737 19.8892C19.1582 20.0783 19.1378 20.1578 19.1312 20.1791C19.0748 20.2862 18.9872 20.3738 18.8801 20.4302C18.8588 20.4369 18.7793 20.4572 18.5901 20.4727C18.2802 20.498 17.8622 20.4994 17.1604 20.4994H9.96039C9.25863 20.4994 8.84056 20.498 8.53065 20.4727C8.34152 20.4572 8.26201 20.4369 8.2407 20.4302C8.13357 20.3738 8.04602 20.2862 7.98957 20.1791C7.98295 20.1578 7.96256 20.0783 7.94711 19.8892C7.92179 19.5792 7.92039 19.1612 7.92039 18.4594V9.33941C7.92039 8.63765 7.92179 8.21958 7.94711 7.90968C7.96256 7.72054 7.98295 7.64103 7.98957 7.61972C8.04601 7.51259 8.13357 7.42504 8.2407 7.36859C8.26201 7.36198 8.34151 7.34159 8.53065 7.32613C8.84056 7.30081 9.25863 7.29941 9.96039 7.29941ZM18.8863 7.37076L18.8827 7.36941C18.8852 7.37026 18.8864 7.37073 18.8863 7.37076ZM19.129 7.61351C19.1291 7.61344 19.1295 7.61459 19.1304 7.61715L19.129 7.61351ZM19.129 20.1853L19.1304 20.1817C19.1296 20.1842 19.1291 20.1854 19.129 20.1853ZM18.8863 20.4281C18.8864 20.4281 18.8853 20.4286 18.8827 20.4294L18.8863 20.4281ZM8.23449 20.4281L8.23813 20.4294C8.23557 20.4286 8.23442 20.4281 8.23449 20.4281ZM7.99174 20.1853C7.99171 20.1854 7.99124 20.1842 7.99039 20.1817L7.99174 20.1853ZM7.99174 7.61351L7.99039 7.61715C7.99124 7.61459 7.99171 7.61344 7.99174 7.61351ZM8.23496 7.37053C8.23493 7.37052 8.23462 7.37067 8.23496 7.37053L8.23812 7.36941C8.23655 7.36993 8.23551 7.37031 8.23496 7.37053Z" fill="#B8C1CC"/>
</svg>
