<svg width="24" height="25" viewBox="0 0 24 25" fill="none" xmlns="http://www.w3.org/2000/svg">
<path fill-rule="evenodd" clip-rule="evenodd" d="M7.54618 3.37754C7.71236 3.4975 7.98037 3.77306 7.98037 3.77306C9.02079 4.74819 10.5879 7.17355 11.0911 8.40405C11.1016 8.40405 11.4001 9.13569 11.4118 9.4837V9.53002C11.4118 10.0633 11.1133 10.5622 10.6335 10.8175C10.4357 10.9228 9.95456 11.0207 9.72244 11.068C9.64556 11.0836 9.59599 11.0937 9.59308 11.0966C8.90727 11.2012 7.85514 11.2701 6.70003 11.2701C5.48757 11.2701 4.38981 11.2012 3.71453 11.0729C3.70282 11.0729 3.08606 10.9458 2.88009 10.8638C2.58282 10.7368 2.3312 10.504 2.17087 10.2142C2.05618 9.98255 2 9.73787 2 9.4837C2.01053 9.21646 2.18257 8.71761 2.26215 8.52044C2.76539 7.21987 4.41204 4.73631 5.41852 3.78493C5.52307 3.67883 5.64206 3.56767 5.72485 3.49032C5.76902 3.44905 5.8029 3.41741 5.81877 3.40129C6.07039 3.20413 6.37936 3.09961 6.71173 3.09961C7.00783 3.09961 7.30509 3.19225 7.54618 3.37754ZM18.2286 10.2614C18.2286 10.7852 17.8108 11.2092 17.2947 11.2092C16.7786 11.2092 16.3608 10.7852 16.3608 10.2614L16.1033 5.68256C16.1033 5.01504 16.637 4.47461 17.2947 4.47461C17.9524 4.47461 18.4849 5.01504 18.4849 5.68256L18.2286 10.2614ZM21.1199 13.3352C21.4172 13.4635 21.6688 13.6951 21.8291 13.9849C21.9438 14.2165 22 14.4612 22 14.7166C21.9895 14.9826 21.8174 15.4827 21.7367 15.6798C21.2346 16.9793 19.5868 19.4629 18.5815 20.4155C18.4787 20.519 18.3619 20.628 18.2793 20.7051L18.2792 20.7051C18.2331 20.7482 18.1976 20.7813 18.1812 20.7979C17.9284 20.9951 17.6206 21.0996 17.2894 21.0996C16.991 21.0996 16.6937 21.007 16.4538 20.8205C16.2876 20.7017 16.0196 20.4261 16.0196 20.4261C14.978 19.4522 13.4121 17.0256 12.9089 15.7951C12.8972 15.7951 12.5999 15.0646 12.5882 14.7166V14.6702C12.5882 14.1358 12.8855 13.6369 13.3665 13.3815C13.5639 13.2773 14.0435 13.1792 14.2762 13.1315L14.2762 13.1315C14.3539 13.1156 14.404 13.1054 14.4069 13.1024C15.0927 12.9979 16.1449 12.929 17.3 12.929C18.5124 12.929 19.6102 12.9979 20.2855 13.1262C20.296 13.1262 20.9139 13.2532 21.1199 13.3352ZM6.70553 12.9901C6.18942 12.9901 5.77161 13.4142 5.77161 13.938L5.51414 18.5167C5.51414 19.1842 6.04781 19.7246 6.70553 19.7246C7.36325 19.7246 7.89575 19.1842 7.89575 18.5167L7.63945 13.938C7.63945 13.4142 7.22165 12.9901 6.70553 12.9901Z" fill="#878D99"/>
</svg>
