<svg width="24" height="25" viewBox="0 0 24 25" fill="none" xmlns="http://www.w3.org/2000/svg">
<path fill-rule="evenodd" clip-rule="evenodd" d="M7.81 2.09961H16.191C19.28 2.09961 21 3.87961 21 6.92961V17.2596C21 20.3596 19.28 22.0996 16.191 22.0996H7.81C4.77 22.0996 3 20.3596 3 17.2596V6.92961C3 3.87961 4.77 2.09961 7.81 2.09961ZM8.08 6.75961V6.74961H11.069C11.5 6.74961 11.85 7.09961 11.85 7.52861C11.85 7.96961 11.5 8.31961 11.069 8.31961H8.08C7.649 8.31961 7.3 7.96961 7.3 7.53961C7.3 7.10961 7.649 6.75961 8.08 6.75961ZM8.08 12.8396H15.92C16.35 12.8396 16.7 12.4896 16.7 12.0596C16.7 11.6296 16.35 11.2786 15.92 11.2786H8.08C7.649 11.2786 7.3 11.6296 7.3 12.0596C7.3 12.4896 7.649 12.8396 8.08 12.8396ZM8.08 17.4096H15.92C16.319 17.3696 16.62 17.0286 16.62 16.6296C16.62 16.2196 16.319 15.8796 15.92 15.8396H8.08C7.78 15.8096 7.49 15.9496 7.33 16.2096C7.17 16.4596 7.17 16.7896 7.33 17.0496C7.49 17.2996 7.78 17.4496 8.08 17.4096Z" fill="#878D99"/>
</svg>
