<svg width="25" height="24" viewBox="0 0 25 24" fill="none" xmlns="http://www.w3.org/2000/svg">
<path fill-rule="evenodd" clip-rule="evenodd" d="M12.4997 0.333984C6.05593 0.333984 0.833008 5.5569 0.833008 12.0007C0.833008 18.4444 6.05593 23.6673 12.4997 23.6673C18.9434 23.6673 24.1663 18.4444 24.1663 12.0007C24.1663 5.5569 18.9434 0.333984 12.4997 0.333984ZM12.4997 2.08398C17.9769 2.08398 22.4163 6.5234 22.4163 12.0007C22.4163 17.4779 17.9769 21.9173 12.4997 21.9173C7.02242 21.9173 2.58301 17.4779 2.58301 12.0007C2.58301 6.5234 7.02242 2.08398 12.4997 2.08398ZM12.9719 7.03605C12.9139 6.60896 12.5479 6.27978 12.1049 6.27978C11.6216 6.27978 11.2299 6.67154 11.2299 7.15478V12.8096L11.2396 12.94C11.2783 13.1967 11.4298 13.4257 11.6566 13.5611L16.0549 16.1849L16.161 16.2389C16.5575 16.4079 17.0277 16.2622 17.2547 15.8817L17.3086 15.7757C17.4777 15.3792 17.3319 14.9089 16.9515 14.682L12.9794 12.3116L12.9799 7.15478L12.9719 7.03605Z" fill="#818C99"/>
</svg>
