<svg width="18" height="16" viewBox="0 0 18 16" fill="none" xmlns="http://www.w3.org/2000/svg">
<path d="M0 3V13C0 14.6569 1.34315 16 3 16H5C5.55228 16 6 15.5523 6 15C6 14.4477 5.55228 14 5 14H3C2.44772 14 2 13.5523 2 13V5C2 4.44772 2.44772 4 3 4H15C15.5523 4 16 4.44772 16 5V13C16 13.5523 15.5523 14 15 14H13C12.4477 14 12 14.4477 12 15C12 15.5523 12.4477 16 13 16H15C16.6569 16 18 14.6569 18 13V3C18 1.34315 16.6569 0 15 0H3C1.34315 0 0 1.34315 0 3ZM8.64645 6.35355L5.85355 9.14645C5.65829 9.34171 5.65829 9.65829 5.85355 9.85355C5.94732 9.94732 6.0745 10 6.20711 10H8V15C8 15.5523 8.44772 16 9 16C9.55228 16 10 15.5523 10 15V10H11.7929C12.069 10 12.2929 9.77614 12.2929 9.5C12.2929 9.36739 12.2402 9.24021 12.1464 9.14645L9.35355 6.35355C9.15829 6.15829 8.84171 6.15829 8.64645 6.35355Z" fill="#99A2AD"/>
</svg>
