<svg width="25" height="24" viewBox="0 0 25 24" fill="none" xmlns="http://www.w3.org/2000/svg">
<path fill-rule="evenodd" clip-rule="evenodd" d="M12.4998 23.6665C18.9432 23.6665 24.1665 18.4428 24.1665 11.9998C24.1665 5.55687 18.9432 0.333172 12.4998 0.333172C6.05725 0.333172 0.833168 5.55725 0.833168 11.9998C0.833168 18.4424 6.05725 23.6665 12.4998 23.6665ZM12.4998 21.9165C7.02375 21.9165 2.58317 17.4759 2.58317 11.9998C2.58317 6.52375 7.02375 2.08317 12.4998 2.08317C17.9767 2.08317 22.4165 6.52334 22.4165 11.9998C22.4165 17.4763 17.9767 21.9165 12.4998 21.9165ZM16.0275 14.3848C16.3695 14.6397 16.8556 14.6125 17.167 14.3026C17.5094 13.9616 17.5106 13.4076 17.1696 13.0651L13.1201 8.99814L13.0219 8.91298C12.6788 8.65749 12.1909 8.68588 11.88 8.99814L7.83052 13.0651L7.74601 13.1635C7.49258 13.5066 7.52187 13.9926 7.83319 14.3026L7.93151 14.3871C8.2746 14.6405 8.76065 14.6112 9.07062 14.2999L12.5012 10.8565L15.9295 14.2999L16.0275 14.3848Z" fill="#818C99"/>
</svg>
